<?xml version="1.0" encoding="UTF-8"?><svg id="Layer_1" xmlns="http://www.w3.org/2000/svg" xmlns:xlink="http://www.w3.org/1999/xlink" viewBox="0 0 268.47 212.69"><defs><style>.cls-1{fill:url(#linear-gradient);}.cls-1,.cls-2,.cls-3,.cls-4,.cls-5,.cls-6,.cls-7,.cls-8,.cls-9,.cls-10,.cls-11,.cls-12,.cls-13,.cls-14,.cls-15,.cls-16,.cls-17,.cls-18,.cls-19,.cls-20,.cls-21,.cls-22,.cls-23,.cls-24,.cls-25,.cls-26,.cls-27,.cls-28,.cls-29,.cls-30,.cls-31,.cls-32,.cls-33,.cls-34,.cls-35,.cls-36,.cls-37,.cls-38,.cls-39,.cls-40,.cls-41,.cls-42,.cls-43,.cls-44{stroke-width:0px;}.cls-2{fill:url(#linear-gradient-38);}.cls-3{fill:url(#linear-gradient-33);}.cls-4{fill:url(#linear-gradient-29);}.cls-5{fill:url(#linear-gradient-32);}.cls-6{fill:url(#linear-gradient-30);}.cls-7{fill:url(#linear-gradient-31);}.cls-8{fill:url(#linear-gradient-36);}.cls-9{fill:url(#linear-gradient-39);}.cls-10{fill:url(#linear-gradient-34);}.cls-11{fill:url(#linear-gradient-37);}.cls-12{fill:url(#linear-gradient-35);}.cls-13{fill:url(#linear-gradient-28);}.cls-14{fill:url(#linear-gradient-25);}.cls-15{fill:url(#linear-gradient-11);}.cls-16{fill:url(#linear-gradient-12);}.cls-17{fill:url(#linear-gradient-13);}.cls-18{fill:url(#linear-gradient-10);}.cls-19{fill:url(#linear-gradient-17);}.cls-20{fill:url(#linear-gradient-16);}.cls-21{fill:url(#linear-gradient-19);}.cls-22{fill:url(#linear-gradient-15);}.cls-23{fill:url(#linear-gradient-23);}.cls-24{fill:url(#linear-gradient-21);}.cls-25{fill:url(#linear-gradient-18);}.cls-26{fill:url(#linear-gradient-14);}.cls-27{fill:url(#linear-gradient-22);}.cls-28{fill:url(#linear-gradient-20);}.cls-29{fill:url(#linear-gradient-27);}.cls-30{fill:url(#linear-gradient-24);}.cls-31{fill:url(#linear-gradient-26);}.cls-32{fill:url(#linear-gradient-44);}.cls-33{fill:url(#linear-gradient-42);}.cls-34{fill:url(#linear-gradient-43);}.cls-35{fill:url(#linear-gradient-40);}.cls-36{fill:url(#linear-gradient-41);}.cls-37{fill:url(#linear-gradient-4);}.cls-38{fill:url(#linear-gradient-2);}.cls-39{fill:url(#linear-gradient-3);}.cls-40{fill:url(#linear-gradient-8);}.cls-41{fill:url(#linear-gradient-9);}.cls-42{fill:url(#linear-gradient-7);}.cls-43{fill:url(#linear-gradient-5);}.cls-44{fill:url(#linear-gradient-6);}</style><linearGradient id="linear-gradient" x1="264.84" y1="106.35" x2="1.09" y2="106.35" gradientUnits="userSpaceOnUse"><stop offset="0" stop-color="#6ead8b"/><stop offset="1" stop-color="#419ccb"/></linearGradient><linearGradient id="linear-gradient-2" x1="264.84" y1="64.62" x2="1.09" y2="64.62" xlink:href="#linear-gradient"/><linearGradient id="linear-gradient-3" y1="101.05" y2="101.05" xlink:href="#linear-gradient"/><linearGradient id="linear-gradient-4" x1="264.84" y1="24.89" x2="1.09" y2="24.89" xlink:href="#linear-gradient"/><linearGradient id="linear-gradient-5" y1="101.64" y2="101.64" xlink:href="#linear-gradient"/><linearGradient id="linear-gradient-6" x1="264.84" y1="84.68" x2="1.09" y2="84.68" xlink:href="#linear-gradient"/><linearGradient id="linear-gradient-7" x1="264.84" y1="65.89" x2="1.09" y2="65.89" xlink:href="#linear-gradient"/><linearGradient id="linear-gradient-8" x1="264.84" y1="77.49" x2="1.09" y2="77.49" xlink:href="#linear-gradient"/><linearGradient id="linear-gradient-9" x1="264.84" y1="55.75" x2="1.09" y2="55.75" xlink:href="#linear-gradient"/><linearGradient id="linear-gradient-10" x1="264.84" y1="88.09" x2="1.09" y2="88.09" xlink:href="#linear-gradient"/><linearGradient id="linear-gradient-11" x1="264.84" y1="140.97" x2="1.09" y2="140.97" xlink:href="#linear-gradient"/><linearGradient id="linear-gradient-12" x1="264.84" y1="34.07" x2="1.09" y2="34.07" xlink:href="#linear-gradient"/><linearGradient id="linear-gradient-13" x1="264.84" y1="140.69" x2="1.09" y2="140.69" xlink:href="#linear-gradient"/><linearGradient id="linear-gradient-14" x1="264.84" y1="22.47" x2="1.09" y2="22.47" xlink:href="#linear-gradient"/><linearGradient id="linear-gradient-15" x1="264.84" y1="166.68" x2="1.09" y2="166.68" xlink:href="#linear-gradient"/><linearGradient id="linear-gradient-16" x1="264.84" y1="165.07" x2="1.09" y2="165.07" xlink:href="#linear-gradient"/><linearGradient id="linear-gradient-17" x1="264.84" y1="74.15" x2="1.09" y2="74.15" xlink:href="#linear-gradient"/><linearGradient id="linear-gradient-18" x1="264.84" y1="61.91" x2="1.09" y2="61.91" xlink:href="#linear-gradient"/><linearGradient id="linear-gradient-19" x1="264.84" y1="157.92" x2="1.09" y2="157.92" xlink:href="#linear-gradient"/><linearGradient id="linear-gradient-20" x1="264.84" y1="176.72" x2="1.09" y2="176.72" xlink:href="#linear-gradient"/><linearGradient id="linear-gradient-21" x1="264.84" y1="155.77" x2="1.09" y2="155.77" xlink:href="#linear-gradient"/><linearGradient id="linear-gradient-22" x1="264.84" y1="47.66" x2="1.09" y2="47.66" xlink:href="#linear-gradient"/><linearGradient id="linear-gradient-23" x1="264.84" y1="143.12" x2="1.09" y2="143.12" xlink:href="#linear-gradient"/><linearGradient id="linear-gradient-24" x1="264.84" y1="180.69" x2="1.09" y2="180.69" xlink:href="#linear-gradient"/><linearGradient id="linear-gradient-25" y1="102.05" y2="102.05" xlink:href="#linear-gradient"/><linearGradient id="linear-gradient-26" x1="264.84" y1="28.86" x2="1.09" y2="28.86" xlink:href="#linear-gradient"/><linearGradient id="linear-gradient-27" x1="264.84" y1="128.3" x2="1.09" y2="128.3" xlink:href="#linear-gradient"/><linearGradient id="linear-gradient-28" x1="264.84" y1="114.91" x2="1.09" y2="114.91" xlink:href="#linear-gradient"/><linearGradient id="linear-gradient-29" x1="264.84" y1="93.28" x2="1.09" y2="93.28" xlink:href="#linear-gradient"/><linearGradient id="linear-gradient-30" x1="264.84" y1="149.34" x2="1.09" y2="149.34" xlink:href="#linear-gradient"/><linearGradient id="linear-gradient-31" x1="264.84" y1="84.25" x2="1.09" y2="84.25" xlink:href="#linear-gradient"/><linearGradient id="linear-gradient-32" x1="264.84" y1="77.02" x2="1.09" y2="77.02" xlink:href="#linear-gradient"/><linearGradient id="linear-gradient-33" x1="264.84" y1="40.49" x2="1.09" y2="40.49" xlink:href="#linear-gradient"/><linearGradient id="linear-gradient-34" x1="264.84" y1="183.12" x2="1.09" y2="183.12" xlink:href="#linear-gradient"/><linearGradient id="linear-gradient-35" x1="264.84" y1="114.39" x2="1.09" y2="114.39" xlink:href="#linear-gradient"/><linearGradient id="linear-gradient-36" x1="264.84" y1="129.18" x2="1.09" y2="129.18" xlink:href="#linear-gradient"/><linearGradient id="linear-gradient-37" x1="264.84" y1="131.45" x2="1.09" y2="131.45" xlink:href="#linear-gradient"/><linearGradient id="linear-gradient-38" x1="264.84" y1="111.14" x2="1.09" y2="111.14" xlink:href="#linear-gradient"/><linearGradient id="linear-gradient-39" x1="264.84" y1="121.34" x2="1.09" y2="121.34" xlink:href="#linear-gradient"/><linearGradient id="linear-gradient-40" x1="264.84" y1="71.12" x2="1.09" y2="71.12" xlink:href="#linear-gradient"/><linearGradient id="linear-gradient-41" x1="264.84" y1="171.48" x2="1.09" y2="171.48" xlink:href="#linear-gradient"/><linearGradient id="linear-gradient-42" x1="264.84" y1="59.5" x2="1.09" y2="59.5" xlink:href="#linear-gradient"/><linearGradient id="linear-gradient-43" x1="264.84" y1="92.79" x2="1.09" y2="92.79" xlink:href="#linear-gradient"/><linearGradient id="linear-gradient-44" x1="264.84" y1="149.78" x2="1.09" y2="149.78" xlink:href="#linear-gradient"/></defs><path class="cls-1" d="M126.23,106.35c0-32.36,0-64.72.01-97.08,0-1.6.04-3.24.36-4.81C127.18,1.62,129.35-.06,132.03,0c2.58.06,4.56,1.71,5.19,4.44.69,3,.29,6.05.34,9.08.03,1.73.6,2.55,2.47,2.66,29.85,1.75,56.67,12.41,81.75,28.04,15.76,9.82,30.21,21.33,43.4,34.41.67.67,1.36,1.34,1.92,2.09,1.85,2.49,1.67,5.59-.38,7.51-2.24,2.1-5.3,2.14-7.67-.21-4.59-4.54-9.29-8.96-14.21-13.13-23.87-20.25-50.09-36.19-80.76-43.99-7.65-1.94-15.46-2.89-23.29-3.67-2.29-.23-3.29.48-3.25,2.94.11,6.74.07,13.47.02,20.21-.01,1.87.6,2.69,2.6,2.81,29.82,1.86,56.66,12.47,81.72,28.14,15.99,10,30.66,21.69,43.99,35.04,3.43,3.44,3.47,6.45.01,9.85-25.94,25.48-55.3,45.53-90.25,56.68-11.44,3.65-23.19,5.69-35.16,6.49-2.22.15-3,.92-2.93,3.09.11,3.51.03,7.02.03,10.53,0,.85.02,1.71-.02,2.56-.19,4.45-2.39,7.18-5.73,7.12-3.24-.05-5.36-2.7-5.57-6.98-.05-1.04-.03-2.09-.03-3.13,0-32.07,0-64.15,0-96.22ZM183.16,73.98c25.36,27,24.63,68.63.24,94.37.35-.07.63-.08.87-.17,26.24-10.51,48.98-26.37,69.6-45.48,1.32-1.22.87-1.94-.21-2.94-13.44-12.53-27.96-23.6-43.85-32.84-8.43-4.9-17.16-9.2-26.65-12.92ZM186.94,100.19c-2.95,7.25-7.08,12.6-13.42,15.82-2.57,1.31-3.38,2.86-3.39,5.72-.02,11.86-4.98,21.4-14.31,28.67-4.57,3.56-9.77,5.76-15.45,6.84-1.42.27-2.81.5-2.79,2.51.05,5.5.02,11,.02,16.49,0,1.57.66,2.16,2.31,1.96,9.69-1.18,18.64-4.31,26.57-10.03,14.98-10.81,23.16-25.5,24.42-43.92.55-8.02-.87-15.81-3.95-24.05ZM159.63,108.44c9.92.06,17.67-7.51,17.69-17.29.01-9.37-7.76-17.26-17.12-17.35-9.81-.1-17.74,7.53-17.87,17.17-.12,9.44,7.76,17.4,17.3,17.46ZM138.21,109.73c-.29.32-.52.45-.52.59-.04,11.47-.07,22.93-.08,34.4,0,1.4.73,1.67,2.07,1.43,10.51-1.87,19.99-13.68,19.5-24.29-.08-1.65-.63-2.37-2.33-2.45-3.26-.15-6.28-1.27-9.25-2.59-3.68-1.64-6.55-4.35-9.4-7.09ZM146.59,65.84c-2.75-1.11-5.05-1.01-7.26-1.41-.88-.16-1.59.18-1.63,1.11-.08,2.29-.49,4.61.4,7.31,2.5-2.85,5.12-4.98,8.49-7.01Z"/><path class="cls-38" d="M27.12,69.22c-2.53-.02-4.67-2.25-4.58-4.77.09-2.42,2.21-4.44,4.63-4.43,2.54.01,4.67,2.23,4.57,4.76-.09,2.43-2.2,4.45-4.62,4.43Z"/><path class="cls-39" d="M74.52,96.46c2.46.07,4.49,2.16,4.48,4.61-.01,2.46-2.12,4.59-4.52,4.56-2.51-.03-4.77-2.35-4.67-4.79.11-2.43,2.28-4.45,4.71-4.38Z"/><path class="cls-37" d="M105.37,29.45c-2.54.03-4.57-1.87-4.67-4.37-.11-2.42,2.23-4.81,4.66-4.76,2.49.05,4.44,2.05,4.46,4.59.02,2.52-1.93,4.52-4.44,4.54Z"/><path class="cls-43" d="M26.56,106.23c-2.42.04-4.55-2-4.64-4.44-.09-2.57,2.04-4.76,4.6-4.75,2.41.01,4.52,2.13,4.54,4.56.02,2.35-2.15,4.59-4.5,4.63Z"/><path class="cls-44" d="M55.13,84.78c-.02,2.49-2.04,4.47-4.54,4.46-2.51-.01-4.62-2.03-4.64-4.42-.02-2.43,2.38-4.8,4.76-4.7,2.45.1,4.44,2.2,4.43,4.67Z"/><path class="cls-42" d="M85.83,65.63c.23-2.37,2.58-4.46,4.85-4.29,2.59.18,4.54,2.47,4.29,5.06-.23,2.46-2.43,4.27-4.92,4.05-2.5-.22-4.45-2.44-4.22-4.81Z"/><path class="cls-40" d="M67.97,77.6c-.08,2.49-2.14,4.46-4.6,4.41-2.69-.06-4.59-2.1-4.46-4.79.12-2.58,2.09-4.36,4.68-4.24,2.53.12,4.47,2.16,4.39,4.62Z"/><path class="cls-41" d="M38.9,60.25c-2.55-.05-4.49-2-4.48-4.5.01-2.64,2.11-4.6,4.78-4.49,2.4.1,4.47,2.31,4.39,4.68-.09,2.44-2.17,4.36-4.69,4.31Z"/><path class="cls-18" d="M85.15,87.98c.09,2.46-1.85,4.53-4.38,4.67-2.5.14-4.62-1.74-4.76-4.22-.15-2.57,1.9-4.82,4.46-4.91,2.28-.07,4.6,2.13,4.68,4.46Z"/><path class="cls-15" d="M31.04,140.93c.02,2.42-2.06,4.57-4.47,4.62-2.56.06-4.71-2.1-4.66-4.68.05-2.47,2.14-4.55,4.55-4.5,2.38.05,4.56,2.22,4.58,4.56Z"/><path class="cls-16" d="M77.44,29.54c2.46.02,4.46,2.07,4.46,4.57,0,2.61-2.1,4.58-4.77,4.49-2.5-.09-4.43-2.14-4.37-4.63.06-2.35,2.28-4.45,4.68-4.43Z"/><path class="cls-17" d="M109.6,145.21c-2.58.01-4.51-1.84-4.58-4.39-.08-2.72,1.87-4.71,4.56-4.65,2.52.06,4.52,2.05,4.52,4.51,0,2.48-2.03,4.52-4.49,4.53Z"/><path class="cls-26" d="M119.99,17.88c2.42.07,4.48,2.23,4.43,4.65-.05,2.29-2.33,4.5-4.65,4.52-2.51.02-4.59-2.24-4.48-4.86.09-2.44,2.22-4.39,4.71-4.32Z"/><path class="cls-22" d="M90.15,171.23c-2.47-.2-4.37-2.4-4.17-4.82.2-2.42,2.45-4.44,4.78-4.28,2.61.18,4.47,2.38,4.25,5.03-.21,2.48-2.36,4.28-4.86,4.07Z"/><path class="cls-20" d="M63.42,160.58c2.46,0,4.49,2,4.53,4.48.04,2.49-1.88,4.43-4.46,4.5-2.75.08-4.66-1.81-4.59-4.56.06-2.56,1.96-4.42,4.53-4.43Z"/><path class="cls-19" d="M20.41,74.19c-.04,2.5-2.07,4.51-4.52,4.49-2.39-.02-4.59-2.15-4.61-4.49-.03-2.58,2.09-4.62,4.74-4.57,2.5.05,4.44,2.06,4.4,4.57Z"/><path class="cls-25" d="M104.69,57.36c2.38.06,4.52,2.24,4.5,4.61-.02,2.47-2.04,4.5-4.51,4.51-2.64,0-4.79-2.13-4.67-4.65.12-2.35,2.39-4.52,4.67-4.47Z"/><path class="cls-21" d="M55.11,157.76c.08,2.36-2,4.59-4.38,4.72-2.37.13-4.78-2.21-4.79-4.64-.01-2.4,2.06-4.42,4.57-4.47,2.45-.05,4.53,1.93,4.61,4.4Z"/><path class="cls-28" d="M94.96,176.86c-.07,2.42-2.24,4.47-4.65,4.42-2.4-.05-4.66-2.53-4.51-4.93.16-2.42,2.36-4.33,4.83-4.2,2.47.14,4.41,2.23,4.33,4.7Z"/><path class="cls-24" d="M85.9,155.83c0,2.45-2.02,4.51-4.48,4.53-2.35.03-4.57-2.11-4.64-4.47-.08-2.38,2.3-4.75,4.73-4.71,2.41.04,4.39,2.14,4.39,4.65Z"/><path class="cls-27" d="M55.74,47.75c0,2.52-1.97,4.49-4.47,4.48-2.5,0-4.55-2-4.58-4.44-.03-2.38,2.06-4.61,4.41-4.69,2.58-.08,4.66,1.99,4.65,4.65Z"/><path class="cls-23" d="M75.07,138.56c2.48.06,4.53,2.17,4.46,4.57-.07,2.37-2.25,4.55-4.57,4.55-2.49,0-4.72-2.33-4.6-4.79.12-2.45,2.24-4.39,4.71-4.33Z"/><path class="cls-30" d="M109.17,180.84c-.09,2.36-2.35,4.48-4.69,4.41-2.42-.07-4.65-2.54-4.47-4.95.18-2.42,2.34-4.28,4.86-4.17,2.43.11,4.41,2.26,4.31,4.71Z"/><path class="cls-14" d="M109.44,97.52c2.54,0,4.55,1.91,4.61,4.38.06,2.52-2.15,4.72-4.67,4.67-2.47-.05-4.39-2.07-4.38-4.61,0-2.62,1.82-4.44,4.44-4.44Z"/><path class="cls-31" d="M91.01,33.43c-2.49-.06-4.49-2.1-4.46-4.55.03-2.4,2.17-4.57,4.51-4.58,2.59-.01,4.61,2.1,4.54,4.76-.06,2.5-2.09,4.43-4.59,4.37Z"/><path class="cls-29" d="M103.58,132.86c-2.28.07-4.56-2.09-4.69-4.45-.13-2.4,1.84-4.52,4.36-4.67,2.57-.15,4.77,1.9,4.81,4.48.03,2.37-2.08,4.55-4.47,4.63Z"/><path class="cls-13" d="M76.01,114.91c0,2.59-2.13,4.6-4.78,4.52-2.5-.08-4.41-2.1-4.34-4.62.07-2.5,2.11-4.48,4.57-4.44,2.4.04,4.56,2.2,4.56,4.53Z"/><path class="cls-4" d="M120.3,97.81c-2.64.02-4.46-1.76-4.5-4.37-.04-2.64,2.02-4.74,4.59-4.67,2.47.06,4.44,2.13,4.4,4.59-.05,2.57-1.93,4.44-4.49,4.46Z"/><path class="cls-6" d="M124.88,149.35c-.03,2.53-2.28,4.64-4.82,4.52-2.47-.11-4.31-2.16-4.23-4.73.07-2.51,2.08-4.4,4.6-4.33,2.5.06,4.48,2.09,4.45,4.54Z"/><path class="cls-7" d="M5.34,79.78c2.53,0,4.51,1.94,4.56,4.42.05,2.58-2.05,4.58-4.74,4.52-2.61-.06-4.39-1.93-4.34-4.54.05-2.57,1.93-4.4,4.52-4.4Z"/><path class="cls-5" d="M93.9,76.91c.03,2.56-1.84,4.58-4.32,4.65-2.53.08-4.75-2.09-4.73-4.61.02-2.45,2.04-4.44,4.54-4.46,2.51-.02,4.49,1.92,4.52,4.42Z"/><path class="cls-3" d="M64,44.98c-2.45-.07-4.5-2.14-4.49-4.54,0-2.55,2.18-4.54,4.83-4.43,2.47.1,4.47,2.23,4.36,4.63-.12,2.41-2.27,4.42-4.69,4.35Z"/><path class="cls-10" d="M123.53,183.14c-.01,2.52-1.96,4.55-4.4,4.57-2.51.02-4.66-2.2-4.58-4.74.07-2.4,2.23-4.49,4.61-4.45,2.43.04,4.39,2.11,4.37,4.62Z"/><path class="cls-12" d="M108.05,114.37c0,2.46-1.99,4.47-4.47,4.52-2.62.05-4.78-2.04-4.7-4.56.07-2.4,2.22-4.45,4.62-4.43,2.43.02,4.56,2.11,4.55,4.48Z"/><path class="cls-8" d="M76.14,129.37c-.08,2.43-2.16,4.36-4.65,4.32-2.48-.03-4.52-2.06-4.51-4.47.01-2.49,2.3-4.65,4.8-4.53,2.38.11,4.44,2.32,4.36,4.68Z"/><path class="cls-11" d="M19.76,131.55c-.02,2.42-2.08,4.4-4.57,4.41-2.49,0-4.56-1.96-4.6-4.38-.04-2.48,2.22-4.7,4.71-4.63,2.39.07,4.49,2.23,4.46,4.59Z"/><path class="cls-2" d="M15.12,115.64c-2.39-.04-4.51-2.16-4.52-4.53-.01-2.52,2.18-4.57,4.79-4.47,2.47.09,4.46,2.19,4.37,4.6-.09,2.4-2.24,4.44-4.64,4.4Z"/><path class="cls-9" d="M9.06,121.34c-.02,2.61-1.91,4.49-4.5,4.47C2.02,125.78-.02,123.77,0,121.31c.02-2.48,2.05-4.44,4.6-4.44,2.64,0,4.47,1.83,4.45,4.47Z"/><path class="cls-35" d="M81.26,71.1c.04,2.41-1.98,4.46-4.46,4.52-2.51.06-4.59-1.83-4.7-4.27-.12-2.49,2.07-4.73,4.6-4.72,2.41,0,4.52,2.08,4.56,4.47Z"/><path class="cls-36" d="M76.74,175.98c-2.4.04-4.55-1.99-4.66-4.39-.1-2.41,1.88-4.52,4.36-4.61,2.61-.1,4.81,1.94,4.81,4.46,0,2.38-2.12,4.5-4.51,4.54Z"/><path class="cls-33" d="M123.65,59.61c-.06,2.4-2.2,4.5-4.57,4.48-2.52-.02-4.54-2.23-4.42-4.85.11-2.47,2.22-4.44,4.64-4.32,2.4.12,4.4,2.27,4.34,4.69Z"/><path class="cls-34" d="M38.17,97.26c-2.64-.05-4.41-1.92-4.35-4.57.06-2.6,1.99-4.44,4.58-4.37,2.5.07,4.52,2.16,4.46,4.6-.06,2.47-2.13,4.39-4.69,4.34Z"/><path class="cls-32" d="M38.28,154.28c-2.56.03-4.52-1.89-4.54-4.46-.02-2.57,1.89-4.52,4.45-4.54,2.57-.02,4.52,1.89,4.55,4.45.02,2.56-1.89,4.52-4.46,4.55Z"/></svg>