<?xml version="1.0" encoding="UTF-8"?><svg id="Layer_1" xmlns="http://www.w3.org/2000/svg" xmlns:xlink="http://www.w3.org/1999/xlink" viewBox="0 0 444.56 268.56"><defs><style>.cls-1{fill:url(#linear-gradient);stroke-width:0px;}</style><linearGradient id="linear-gradient" x1="0" y1="134.28" x2="444.56" y2="134.28" gradientUnits="userSpaceOnUse"><stop offset="0" stop-color="#6ead8b"/><stop offset="1" stop-color="#419ccb"/></linearGradient></defs><path class="cls-1" d="M222.5,107.29c-4.64,26.66-20.15,41.83-47.06,45.89,27,4.02,42.57,19.37,46.75,46.45,4.13-27,19.49-42.32,46.52-46.11-1.95-1.48-3.89-1.35-5.67-1.7-9.11-1.78-15.58-6.64-18.18-15.8-2.5-8.8.48-15.91,6.79-22.23,38.79-38.84,91.76-92.3,108.04-108.6,1.2-1.2,2.37-2.47,3.72-3.48,3.37-2.52,7.56-2.25,10.03.73,2.61,3.15,2.65,6.49,0,9.69-.98,1.19-2.12,2.25-3.21,3.34-25.34,25.39,6.29-6.24-19.03,19.18-9.71,9.75-19.27,19.65-29.03,29.35-2.62,2.61-2.84,4.09.54,6.3,25.28,16.49,47.37,36.67,67.66,58.94,11.63,12.77,26.14,19.99,43.6,20.77,1.23.05,2.48.14,3.68.38,4.4.88,7.23,4.19,6.89,7.97-.35,3.88-3.49,6.71-8.12,6.66-17.44-.19-33.03-5.79-46.83-16.43-5.04-3.89-9.4-8.48-13.66-13.19-10.49-11.6-21.85-22.3-33.86-32.31-.32-.27-.81-.33-1.85-.73,15.08,38.54,13.38,75.89-5.76,112.56,2.28.46,3.43-.95,4.7-1.79,12.81-8.44,24.74-18.01,36.3-28.06,4.53-3.94,8.7-4.15,11.82-.65,2.91,3.27,2.44,7.7-1.78,11.38-38.61,33.77-81.03,60.41-132.44,69.93-35.74,6.62-70.12,1.26-103.53-12.14-32.96-13.22-61.9-32.82-88.58-55.98-1.98-1.72-3.99-3.43-5.9-5.23-3.72-3.51-4.26-7.85-1.46-11.11,2.9-3.37,7.03-3.63,11.04-.07,13.2,11.72,26.82,22.87,41.56,32.61,1.24.82,2.52,1.57,4.8,2.97-9.93-18.52-15.51-37.06-16.62-56.99-1.11-19.96,2.54-38.98,10.25-58.12-5.47,3.45-9.47,7.49-13.58,11.29-9.31,8.6-18.14,17.7-26.77,27-14.2,15.28-31.93,23.49-52.72,25.07-1.23.09-2.48.09-3.71.02-4.58-.28-7.58-2.98-7.83-6.99-.25-3.98,2.4-7.06,7.03-7.75,3.35-.5,6.81-.34,10.14-.89,14.39-2.37,26.41-9.08,36.39-19.74,14.27-15.25,29.02-30,45.46-42.98,26.36-20.81,54.79-37.58,87.73-45.74,31.03-7.68,61.34-4.87,91.07,6.25,5.3,1.98,7.43,5.64,5.95,9.84-1.54,4.37-5.79,5.97-11.15,3.96-43.3-16.29-84.51-10.39-124.78,10.64-16.67,8.71-24.94,23.51-30.84,39.58-16.48,44.85-8.23,85.33,24.07,120.75,2.23,2.44,4.89,4.14,7.93,5.46,24.41,10.6,49.77,16.83,76.49,16.27,25.24-.53,49.19-6.92,72.08-17.33,6.29-2.86,9.97-8.74,14-13.94,14.31-18.46,22.21-39.38,23.53-62.82,1.63-28.89-6.58-54.57-24.27-77.37-2.23-2.88-3.69-3.28-6.44-.48-13.98,14.23-28.11,28.31-42.26,42.37-2.39,2.38-3.72,4.91-2.83,8.28.9,3.41,3.64,4.22,6.68,4.8,13.66,2.61,27.3,5.3,40.95,7.97,1.36.27,2.73.55,4.07.9,3.76,1,5.82,3.41,5.72,7.37-.1,3.98-2.33,6.27-6.13,7.03-11.06,2.2-22.14,4.34-33.21,6.5-4.85.95-9.77,1.65-14.54,2.9-12.99,3.38-21.35,11.63-24.17,24.79-3.05,14.2-5.63,28.5-8.32,42.77-1.42,7.55-3.63,10.5-8.27,10.53-4.48.03-6.58-2.63-8.03-10.12-2.7-13.96-5.29-27.94-8.14-41.87-2.97-14.53-11.84-23.48-26.38-26.48-14.07-2.9-28.21-5.5-42.31-8.25-6.95-1.35-9.87-3.66-9.98-7.82-.12-4.37,3.03-6.95,10.01-8.29,14.11-2.71,28.23-5.38,42.32-8.2,14.09-2.82,23.59-12.39,26.38-26.53,2.81-14.25,5.51-28.52,8.26-42.78.15-.76.28-1.52.45-2.27.89-4.04,3.13-6.96,7.47-6.94,4.3.02,6.64,2.76,7.43,6.93,2.12,11.08,4.28,22.15,6.42,33.22.76,3.94,1.56,7.88,2.24,11.84.8,4.67-1.54,8.41-5.59,9.16-4.3.8-7.66-1.51-8.86-6.18-.52-2.01-.88-4.05-1.31-6.08Z"/></svg>